<svg xmlns="http://www.w3.org/2000/svg" version="1.1" xmlns:xlink="http://www.w3.org/1999/xlink" xmlns:svgjs="http://svgjs.dev/svgjs" width="100%" height="100%" viewBox="0 0 1000 600"><rect width="1000" height="600" x="0" y="0" fill="#ffffff"/><g><circle r="166.66666666666666" cx="387.60534159342444" cy="409.8275850540648" fill="#000000" transform="matrix(0.5657677368738018,0,0,0.5657677368738018,0,68.13275555553766)"/><path d="M335.934965278023 484.82760061932726L335.934965278023 334.8276033914124L439.27569812801767 334.8276033914124L439.27569812801767 367.98262902010975L382.8061795914692 367.98262902010975L382.8061795914692 398.29146980031624L435.1275351041532 398.29146980031624L435.1275351041532 425.75412573203175L382.8061795914692 425.75412573203175L382.8061795914692 484.82760061932726L335.934965278023 484.82760061932726Z " fill="white" transform="matrix(0.5657677368738018,0,0,0.5657677368738018,0,68.13275555553766)"/><path d="M649.7921621246314 483.27069570406826L649.7921621246314 410.41815593697635L637.6053334384635 410.41815593697635L637.6053334384635 386.447147089514L649.7921621246314 386.447147089514L649.7921621246314 378.3136468870715Q649.7921621246314 356.86590212881566 660.1268075963817 345.8601757822764Q670.461453068132 334.8276062007455 689.0101284472995 334.8276062007455L689.0101284472995 334.8276062007455Q703.9081238676149 334.8276062007455 716.6586604886055 342.37055523337364L716.6586604886055 342.37055523337364L715.289655504036 368.4621796451692Q704.0960265125558 364.03304587156197 696.5530774799277 364.03304587156197L696.5530774799277 364.03304587156197Q690.7549387217508 364.03304587156197 687.6679666977216 366.82474231068414Q684.5809946736922 369.61643874980626 684.5809946736922 374.85086957316037L684.5809946736922 374.85086957316037Q684.5809946736922 379.87055451658193 687.8558693426625 386.447147089514L687.8558693426625 386.447147089514L714.9138502141542 386.447147089514L714.9138502141542 410.41815593697635L690.5670360768099 410.41815593697635L690.5670360768099 483.27069570406826L649.7921621246314 483.27069570406826ZM766.9091963928045 484.8276033335787Q754.3465624167548 484.8276033335787 743.4213657751901 478.14363782068045Q732.4961691336255 471.4865155427737 725.9195765606935 459.9707677313948Q719.369827222753 448.48186315500743 719.369827222753 434.36232154944724L719.369827222753 434.36232154944724Q719.369827222753 420.45752582381954 725.9195765606935 409.15652389237306Q732.4961691336255 397.85552196092664 743.5287387151564 391.46683203293554Q754.5344650616956 385.07814210494445 766.9091963928045 385.07814210494445L766.9091963928045 385.07814210494445Q776.9485662796476 385.07814210494445 785.5652447119382 390.68837821818033Q794.1550799092372 396.2986143314162 798.611056917836 407.519086557888L798.611056917836 407.519086557888L798.611056917836 385.07814210494445L839.1980282250736 385.07814210494445L839.1980282250736 483.27069570406826L798.611056917836 483.27069570406826L798.611056917836 465.2857282597235Q788.9474923208746 484.8276033335787 766.9091963928045 484.8276033335787L766.9091963928045 484.8276033335787ZM779.4718303688542 454.2800019131842Q787.2026820464233 454.2800019131842 792.7055452196929 448.77713873991456Q798.2084083929626 443.2742755666449 798.611056917836 435.7313265340168L798.611056917836 435.7313265340168L798.611056917836 434.17441890450635Q798.2084083929626 426.44356722693726 792.517642574752 421.04807699363386Q786.80003352155 415.62574352533886 779.4718303688542 415.62574352533886L779.4718303688542 415.62574352533886Q771.3383301664118 415.62574352533886 765.6475643482012 421.31650934354946Q759.9567985299907 427.0341183967516 759.9567985299907 434.95287271926156L759.9567985299907 434.95287271926156Q759.9567985299907 443.05952968671244 765.7549372881674 448.6697657999483Q771.5530760463442 454.2800019131842 779.4718303688542 454.2800019131842L779.4718303688542 454.2800019131842ZM906.4403318789296 484.8276033335787Q890.9786285237914 484.8276033335787 879.0870754225307 478.5462863455538Q867.2223655562615 472.2649693575289 860.5384000433633 460.85659448611625Q853.8812777654565 449.44821961470353 853.8812777654565 434.95287271926156L853.8812777654565 434.95287271926156Q853.8812777654565 421.04807699363386 860.8336756282704 409.63970212222114Q867.7860734910842 398.2313272508085 879.7849995323112 391.65473467787643Q891.7570823385466 385.07814210494445 906.4403318789296 385.07814210494445L906.4403318789296 385.07814210494445Q925.2037531380295 385.07814210494445 936.0215768396279 392.8089937825135L936.0215768396279 392.8089937825135L932.3440536457842 418.5248129044273Q921.338327299245 415.249938235457 914.1711835564986 415.249938235457L914.1711835564986 415.249938235457Q904.9102674844107 415.249938235457 899.4879340161157 420.5648987637858Q894.0656005478207 425.87985929211453 894.0656005478207 434.95287271926156L894.0656005478207 434.95287271926156Q894.0656005478207 444.0258861464086 899.4879340161157 449.44821961470353Q904.9102674844107 454.8705530829985 913.7953782666168 454.8705530829985L913.7953782666168 454.8705530829985Q921.5262299441858 454.8705530829985 931.9682483559025 451.56883517903674L931.9682483559025 451.56883517903674L935.6189283147545 478.6268160505285Q929.0691789768141 481.92853395449026 922.3046837589411 483.3780686440345Q915.5401885410681 484.8276033335787 906.4403318789296 484.8276033335787L906.4403318789296 484.8276033335787ZM998.8347467198766 484.8276033335787Q982.7824921949241 484.8276033335787 970.3272311588406 478.33154046562134Q957.8451268877656 471.86232083265554 950.8927290249517 460.56131890120906Q943.9403311621379 449.26031696976264 943.9403311621379 434.95287271926156L943.9403311621379 434.95287271926156Q943.9403311621379 420.26962317887865 951.0806316698927 408.8612483074659Q958.2477754126389 397.45287343605327 970.4077608638154 391.2789293879946Q982.5945895499832 385.07814210494445 997.4657417353071 385.07814210494445L997.4657417353071 385.07814210494445Q1011.7731859858081 385.07814210494445 1021.9199288126176 391.3594590929693Q1032.0666716394269 397.64077608099416 1037.0863565828486 408.3780700776179Q1042.1328847612617 419.1153640742416 1042.1328847612617 432.429608630055L1042.1328847612617 432.429608630055Q1042.1328847612617 435.91922917895766 1041.7302362363882 437.4761368084681L1041.7302362363882 437.4761368084681L983.7488486546202 444.9922426061047Q986.0842100988859 451.75673782397763 991.2917976872484 454.7631801430323Q996.4993852756108 457.76962246208694 1005.0086907679351 457.76962246208694L1005.0086907679351 457.76962246208694Q1018.1618759137992 457.76962246208694 1033.4356766239964 451.005127244214L1033.4356766239964 451.005127244214L1038.267458922477 476.8820057760771Q1020.2824914781324 484.8276033335787 998.8347467198766 484.8276033335787L998.8347467198766 484.8276033335787ZM982.2187842601014 427.22202104169247L1012.1758345106815 420.6454284687605Q1009.0620192516607 408.48544301758415 997.4657417353071 408.48544301758415L997.4657417353071 408.48544301758415Q990.5133438724932 408.48544301758415 986.4600153887677 413.6930306059466Q982.4066869050423 418.9006181943091 982.2187842601014 427.22202104169247L982.2187842601014 427.22202104169247ZM1129.1049661339136 484.8276033335787Q1106.8787675609026 484.8276033335787 1097.591008253823 465.2857282597235L1097.591008253823 465.2857282597235L1097.591008253823 483.27069570406826L1056.6282316567037 483.27069570406826L1056.6282316567037 355.8995456691195L1097.591008253823 349.9135042660018L1097.591008253823 404.62001717879957Q1102.422790552304 394.36590141202396 1110.153642229873 389.7220217584842Q1117.884493907442 385.07814210494445 1128.8902202539812 385.07814210494445L1128.8902202539812 385.07814210494445Q1141.8555027549044 385.07814210494445 1152.7806993964691 391.5742049729018Q1163.679052803042 398.04342460586753 1169.960369791067 409.45179947728025Q1176.2416867790917 420.8333311137014 1176.2416867790917 434.95287271926156L1176.2416867790917 434.95287271926156Q1176.2416867790917 448.85766844488927 1169.772467146126 460.26604331630193Q1163.3032475131602 471.6744181877146 1152.3780508715954 478.25101076064664Q1141.4528542300309 484.8276033335787 1129.1049661339136 484.8276033335787L1129.1049661339136 484.8276033335787ZM1116.730234802805 454.2800019131842Q1124.648989125315 454.2800019131842 1130.2592252385507 448.48186315500743Q1135.8694613517866 442.6837243968306 1135.8694613517866 434.95287271926156L1135.8694613517866 434.95287271926156Q1135.8694613517866 426.8462157518107 1130.1518522985843 421.23597963857475Q1124.461086480374 415.62574352533886 1116.730234802805 415.62574352533886L1116.730234802805 415.62574352533886Q1108.811480480295 415.62574352533886 1103.201244367059 421.1286066986085Q1097.591008253823 426.63146987187815 1097.591008253823 434.17441890450635L1097.591008253823 434.17441890450635L1097.591008253823 434.95287271926156Q1097.591008253823 443.05952968671244 1103.2817740720336 448.6697657999483Q1108.999383125236 454.2800019131842 1116.730234802805 454.2800019131842L1116.730234802805 454.2800019131842ZM1241.766023393488 484.8276033335787Q1225.5258662235947 484.8276033335787 1212.8827025425703 478.4389134055876Q1200.2126956265543 472.0502234775965 1193.1529248237741 460.74922154615Q1186.1199972559857 449.44821961470353 1186.1199972559857 434.7649700743206L1186.1199972559857 434.7649700743206Q1186.1199972559857 420.0817205339377 1193.2602977637403 408.7538753674997Q1200.4005982714953 397.45287343605327 1213.070605187511 391.2789293879946Q1225.740612103527 385.07814210494445 1241.953926038429 385.07814210494445L1241.953926038429 385.07814210494445Q1258.3819858532631 385.07814210494445 1271.0519927692792 391.3594590929693Q1283.7219996852953 397.64077608099416 1290.6743975481088 408.8612483074659Q1297.6267954109228 420.0817205339377 1297.6267954109228 434.7649700743206L1297.6267954109228 434.7649700743206Q1297.6267954109228 449.6361222596445 1290.5670246081427 460.9371241910909Q1283.5072538053626 472.2649693575289 1270.8640901243382 478.5462863455538Q1258.1940832083221 484.8276033335787 1241.766023393488 484.8276033335787L1241.766023393488 484.8276033335787ZM1242.1686719183613 455.8369095426946Q1250.0874262408713 455.8369095426946 1255.2144841242591 449.9313978445516Q1260.3146987726554 444.0258861464086 1260.3146987726554 434.7649700743206L1260.3146987726554 434.7649700743206Q1260.3146987726554 425.47721076724116 1255.2144841242591 419.5985423040897Q1250.0874262408713 413.6930306059466 1242.1686719183613 413.6930306059466L1242.1686719183613 413.6930306059466Q1234.2230743608598 413.6930306059466 1229.1228597124637 419.5985423040897Q1223.9958018290758 425.47721076724116 1223.9958018290758 434.7649700743206L1223.9958018290758 434.7649700743206Q1223.9958018290758 444.0258861464086 1229.1228597124637 449.9313978445516Q1234.2230743608598 455.8369095426946 1242.1686719183613 455.8369095426946L1242.1686719183613 455.8369095426946ZM1362.9632293803782 484.8276033335787Q1346.7230722104848 484.8276033335787 1334.0530652944688 478.4389134055876Q1321.4099016134444 472.0502234775965 1314.350130810664 460.74922154615Q1307.2903600078841 449.44821961470353 1307.2903600078841 434.7649700743206L1307.2903600078841 434.7649700743206Q1307.2903600078841 420.0817205339377 1314.4306605156387 408.7538753674997Q1321.5978042583852 397.45287343605327 1334.2409679394098 391.2789293879946Q1346.9109748554256 385.07814210494445 1363.151132025319 385.07814210494445L1363.151132025319 385.07814210494445Q1379.579191840153 385.07814210494445 1392.2223555211776 391.3594590929693Q1404.8923624371935 397.64077608099416 1411.8447603000075 408.8612483074659Q1418.7971581628212 420.0817205339377 1418.7971581628212 434.7649700743206L1418.7971581628212 434.7649700743206Q1418.7971581628212 449.6361222596445 1411.7642305950328 460.9371241910909Q1404.7044597922527 472.2649693575289 1392.0344528762369 478.5462863455538Q1379.3912891952123 484.8276033335787 1362.9632293803782 484.8276033335787L1362.9632293803782 484.8276033335787ZM1363.33903467026 455.8369095426946Q1371.25778899277 455.8369095426946 1376.3848468761578 449.9313978445516Q1381.5119047595456 444.0258861464086 1381.5119047595456 434.7649700743206L1381.5119047595456 434.7649700743206Q1381.5119047595456 425.47721076724116 1376.3848468761578 419.5985423040897Q1371.25778899277 413.6930306059466 1363.33903467026 413.6930306059466L1363.33903467026 413.6930306059466Q1355.42028034775 413.6930306059466 1350.293222464362 419.5985423040897Q1345.1661645809743 425.47721076724116 1345.1661645809743 434.7649700743206L1345.1661645809743 434.7649700743206Q1345.1661645809743 444.0258861464086 1350.293222464362 449.9313978445516Q1355.42028034775 455.8369095426946 1363.33903467026 455.8369095426946L1363.33903467026 455.8369095426946ZM1528.585989278299 484.8276033335787Q1515.6475500123672 484.8276033335787 1507.809325394832 481.4453557246422Q1499.9711007772964 478.0631081157057 1494.951415833875 470.1175105582042Q1489.9317308904533 462.1987562356942 1486.066305051669 447.5155066953113L1486.066305051669 447.5155066953113L1474.657930180256 456.5885201224583L1474.657930180256 483.27069570406826L1433.6951535831367 483.27069570406826L1433.8830562280775 355.8995456691195L1474.845832825197 349.9135042660018L1474.657930180256 416.0015488152207L1524.3447581496323 375.4145775079831L1546.5709567226434 405.7742762834366L1515.4328041324347 427.40992368663336Q1517.7681655767003 442.0931732270163 1522.116769645333 447.8913119851931Q1526.4653737139654 453.68945074336995 1534.97467920629 453.68945074336995L1534.97467920629 453.68945074336995Q1538.437456520201 453.68945074336995 1543.2692388186817 452.5351916387329L1543.2692388186817 452.5351916387329L1539.403812979897 484.23705216376436Q1533.6056742217204 484.8276033335787 1528.585989278299 484.8276033335787L1528.585989278299 484.8276033335787Z " fill="black" transform="matrix(0.5657677368738018,0,0,0.5657677368738018,0,68.13275555553766)"/></g></svg>